<svg xmlns="http://www.w3.org/2000/svg" viewBox="0 0 25 25"><defs><style>.cls-2{fill:#fff}</style></defs><g id="Layer_2" data-name="Layer 2"><g id="Camera"><g><circle cx="12.5" cy="12.5" r="12" style="fill:#c3f"/><path class="cls-2" d="M12.5,1A11.5,11.5,0,1,1,1,12.5,11.51,11.51,0,0,1,12.5,1m0-1A12.5,12.5,0,1,0,25,12.5,12.5,12.5,0,0,0,12.5,0Z"/></g><path class="cls-2" d="M14.42,10.38h0v4.24H7.25V10.38h7.17m0-1H7.26a.93.93,0,0,0-1,.84v4.56a.93.93,0,0,0,1,.84h7.16a.93.93,0,0,0,1-.84V10.22a.93.93,0,0,0-1-.84Z"/><path class="cls-2" d="M18.44,12.25v1l-.69-.49.69-.49m.89-1.8a.08.08,0,0,0-.07,0l-3.15,2.2a.08.08,0,0,0,0,.14L19.26,15a.09.09,0,0,0,.07,0,.1.1,0,0,0,.11-.1v-4.4c0-.06-.05-.09-.11-.09Z"/></g></g></svg>