<svg xmlns="http://www.w3.org/2000/svg" viewBox="0 0 25 25"><g id="Layer_2" data-name="Layer 2"><g id="DiamondClose" style="opacity:0.75"><g><rect x="4.87" y="4.87" width="15.26" height="15.26" transform="translate(-5.18 12.5) rotate(-45)"/><path d="M12.5,2.41,22.59,12.5,12.5,22.59,2.41,12.5,12.5,2.41M12.5,1,1,12.5,12.5,24,24,12.5,12.5,1Z" style="fill:#fff"/></g><path d="M12.5,1A11.5,11.5,0,1,1,1,12.5,11.51,11.51,0,0,1,12.5,1m0-1A12.5,12.5,0,1,0,25,12.5,12.5,12.5,0,0,0,12.5,0Z" style="fill:red"/><line x1="3.66" y1="21.34" x2="21.34" y2="3.66" style="fill:none;stroke:red;stroke-miterlimit:10"/></g></g></svg>