<svg xmlns="http://www.w3.org/2000/svg" viewBox="0 0 25 25"><g id="Layer_2" data-name="Layer 2"><g id="GreenClose" style="opacity:0.75"><g><path d="M12.5,20.89a8.39,8.39,0,1,1,8.39-8.39A8.41,8.41,0,0,1,12.5,20.89Z" style="fill:#2fb517"/><path d="M12.5,4.61A7.89,7.89,0,1,1,4.61,12.5,7.9,7.9,0,0,1,12.5,4.61m0-1a8.89,8.89,0,1,0,8.89,8.89A8.89,8.89,0,0,0,12.5,3.61Z" style="fill:#fff"/></g><path d="M12.5,1A11.5,11.5,0,1,1,1,12.5,11.51,11.51,0,0,1,12.5,1m0-1A12.5,12.5,0,1,0,25,12.5,12.5,12.5,0,0,0,12.5,0Z" style="fill:red"/><line x1="3.66" y1="21.34" x2="21.34" y2="3.66" style="fill:none;stroke:red;stroke-miterlimit:10"/></g></g></svg>