<svg xmlns="http://www.w3.org/2000/svg" viewBox="0 0 25 25"><defs><style>.cls-2{fill:#fff}</style></defs><g id="Layer_2" data-name="Layer 2"><g id="Home"><g><circle cx="12.5" cy="12.5" r="12" style="fill:#099"/><path class="cls-2" d="M12.5,1A11.5,11.5,0,1,1,1,12.5,11.51,11.51,0,0,1,12.5,1m0-1A12.5,12.5,0,1,0,25,12.5,12.5,12.5,0,0,0,12.5,0Z"/></g><g><path class="cls-2" d="M12.5,6l5.94,5.47-.52,6.32H7.08l-.52-6.32L12.5,6m0-1.1a.74.74,0,0,0-.5.2L5.8,10.78a.77.77,0,0,0-.24.62l.54,6.66a.76.76,0,0,0,.75.69h11.3a.76.76,0,0,0,.75-.69l.54-6.66a.77.77,0,0,0-.24-.62L13,5.06a.74.74,0,0,0-.5-.2Z"/><path class="cls-2" d="M13.58,14.06v3.55H11.42V14.06h2.16m.29-1H11.13a.78.78,0,0,0-.71.84v4.71h4.16V13.9a.78.78,0,0,0-.71-.84Z"/></g></g></g></svg>