<svg xmlns="http://www.w3.org/2000/svg" viewBox="0 0 100.1 60"><defs><style>.cls-2{fill:#fff}</style></defs><g id="Layer_2" data-name="Layer 2"><g id="ski_area_boundary" data-name="ski area boundary"><g><path d="M6.05.74H94a5.31,5.31,0,0,1,5.31,5.31v47.9A5.32,5.32,0,0,1,94,59.26h-88A5.32,5.32,0,0,1,.74,53.95V6.05A5.31,5.31,0,0,1,6.05.74Z" style="fill:#f90"/><path class="cls-2" d="M94.05,1.47a4.58,4.58,0,0,1,4.58,4.58V54a4.58,4.58,0,0,1-4.58,4.58h-88A4.58,4.58,0,0,1,1.47,54V6.05A4.58,4.58,0,0,1,6.05,1.47h88m0-1.47h-88A6.05,6.05,0,0,0,0,6.05V54a6.05,6.05,0,0,0,6.05,6h88a6.05,6.05,0,0,0,6-6V6.05a6.05,6.05,0,0,0-6-6Z"/></g><rect class="cls-2" x="28.02" y="47.72" width="43.65" height="6.24" rx="3.12" ry="3.12"/><rect class="cls-2" x="28.02" y="4.04" width="43.65" height="6.24" rx="3.12" ry="3.12"/><ellipse class="cls-2" cx="13.14" cy="7.4" rx="3.47" ry="3.36"/><ellipse class="cls-2" cx="84.57" cy="7.4" rx="3.47" ry="3.36"/><g><path d="M23.66,23.05l1.21-1.41a3.76,3.76,0,0,0,2.31.95c.88,0,1.31-.34,1.31-.87S28,21,27.14,20.64l-1.22-.51A2.65,2.65,0,0,1,24,17.66c0-1.5,1.39-2.7,3.34-2.7a4.41,4.41,0,0,1,3,1.19l-1.07,1.29a3.12,3.12,0,0,0-1.95-.71c-.73,0-1.2.29-1.2.81s.62.76,1.44,1.08l1.19.46a2.51,2.51,0,0,1,1.86,2.47c0,1.51-1.3,2.81-3.53,2.81A5.21,5.21,0,0,1,23.66,23.05Z"/><path d="M32.25,15.13h2.12v3.7h.05l2.8-3.7h2.33l-2.84,3.62,3.36,5.45H37.75l-2.28-3.84-1.1,1.4V24.2H32.25Z"/><path d="M41.09,15.13h2.12V24.2H41.09Z"/><path d="M50,15.13h2.54l2.94,9.07H53.28l-1.23-4.6c-.26-.91-.51-2-.76-2.92h-.06c-.22.95-.47,2-.73,2.92l-1.24,4.6H47.1Zm-1,5.31h4.51V22H49Z"/><path d="M56.42,15.13H59.8c2,0,3.62.66,3.62,2.82s-1.63,3-3.62,3H58.54V24.2H56.42Zm3.2,4.17c1.12,0,1.72-.46,1.72-1.35s-.6-1.2-1.72-1.2H58.54V19.3Zm-.21,1.09,1.47-1.31,3,5.12H61.5Z"/><path d="M65.24,15.13h5.88v1.72H67.36v1.82h3.2v1.72h-3.2v2.09h3.9V24.2h-6Z"/><path d="M74.87,15.13H77.4l2.95,9.07H78.1l-1.22-4.6c-.26-.91-.51-2-.77-2.92h0c-.23.95-.48,2-.74,2.92l-1.23,4.6H71.92Zm-1,5.31h4.51V22H73.86Z"/><path d="M16,26.17h3.21c1.94,0,3.45.51,3.45,2.25a2.09,2.09,0,0,1-1.23,1.95v.06a2.08,2.08,0,0,1,1.7,2.13c0,1.85-1.62,2.68-3.66,2.68H16Zm3.11,3.63c1,0,1.48-.42,1.48-1.08s-.48-1-1.47-1h-1V29.8Zm.19,3.85c1.16,0,1.75-.39,1.75-1.22s-.58-1.12-1.75-1.12H18.15v2.34Z"/><path d="M24.29,30.66c0-3,1.73-4.66,4.26-4.66s4.26,1.71,4.26,4.66-1.73,4.74-4.26,4.74S24.29,33.62,24.29,30.66Zm6.34,0c0-1.82-.8-2.89-2.08-2.89s-2.09,1.07-2.09,2.89.81,3,2.09,3S30.63,32.48,30.63,30.66Z"/><path d="M34.52,31V26.17h2.12v5.07c0,1.78.58,2.39,1.63,2.39s1.66-.61,1.66-2.39V26.17h2V31c0,3-1.28,4.37-3.71,4.37S34.52,34.08,34.52,31Z"/><path d="M44.13,26.17h2.18l2.44,4.51.93,2h.06c-.1-1-.27-2.23-.27-3.3v-3.2h2v9.07H49.32l-2.45-4.53-.93-2h-.06c.1,1,.27,2.22.27,3.29v3.22h-2Z"/><path d="M53.7,26.17h2.65c2.86,0,4.71,1.37,4.71,4.49s-1.85,4.58-4.59,4.58H53.7Zm2.52,7.41c1.59,0,2.67-.75,2.67-2.92s-1.08-2.84-2.67-2.84h-.4v5.76Z"/><path d="M64.43,26.17H67l2.94,9.07H67.67l-1.23-4.6c-.26-.91-.51-2-.76-2.92h-.06c-.23,1-.48,2-.74,2.92l-1.23,4.6H61.48Zm-1,5.31h4.51v1.6H63.43Z"/><path d="M70.81,26.17h3.37c2,0,3.62.66,3.62,2.82s-1.63,3-3.62,3H72.93v3.27H70.81ZM74,30.34c1.12,0,1.72-.46,1.72-1.35s-.6-1.2-1.72-1.2H72.93v2.55Zm-.21,1.09,1.46-1.31,3,5.12H75.88Z"/><path d="M81,32l-2.83-5.83h2.27l.84,2.08c.25.68.5,1.31.76,2h.06c.27-.7.53-1.33.79-2l.84-2.08H86L83.14,32v3.24H81Z"/></g><g><path d="M25.21,39.5h1.05l1.18,2.18.45,1h0a15.94,15.94,0,0,1-.13-1.6V39.5h1v4.38H27.71l-1.18-2.19-.44-.95h0c.05.48.13,1.07.13,1.58v1.56h-1Z"/><path d="M29.62,41.67a2.06,2.06,0,1,1,4.11,0,2.07,2.07,0,1,1-4.11,0Zm3.06,0c0-.88-.39-1.4-1-1.4s-1,.52-1,1.4.39,1.43,1,1.43S32.68,42.55,32.68,41.67Z"/><path d="M35.27,40.33H34V39.5h3.51v.83H36.3v3.55h-1Z"/><path d="M39.64,39.5H41.2c1,0,1.79.34,1.79,1.41s-.81,1.48-1.77,1.48h-.56v1.49h-1Zm1.52,2.1c.57,0,.83-.24.83-.69s-.3-.63-.86-.63h-.47V41.6Z"/><path d="M44.28,39.5H45.5l1.42,4.38H45.84l-.59-2.22c-.13-.44-.25-1-.37-1.41h0c-.11.46-.23,1-.35,1.41l-.6,2.22h-1Zm-.49,2.56H46v.77H43.79Z"/><path d="M47.79,40.33H46.54V39.5h3.52v.83H48.81v3.55h-1Z"/><path d="M50.77,39.5H52.4c1,0,1.74.32,1.74,1.36s-.78,1.44-1.74,1.44h-.61v1.58h-1Zm1.54,2c.54,0,.83-.22.83-.65s-.29-.58-.83-.58h-.52v1.23Zm-.1.53.71-.63,1.44,2.47H53.22Z"/><path d="M54.81,41.67a2.06,2.06,0,1,1,4.11,0,2.07,2.07,0,1,1-4.11,0Zm3.06,0c0-.88-.39-1.4-1-1.4s-1,.52-1,1.4.39,1.43,1,1.43S57.87,42.55,57.87,41.67Z"/><path d="M59.78,39.5h1V43h1.79v.84H59.78Z"/><path d="M63.37,39.5h1V43h1.79v.84H63.37Z"/><path d="M67,39.5H69.8v.83H68v.88h1.54V42H68v1h1.88v.84H67Z"/><path d="M70.77,39.5h1.28a2.19,2.19,0,1,1,.06,4.38H70.77ZM72,43.08c.76,0,1.28-.37,1.28-1.41S72.75,40.3,72,40.3h-.2v2.78Z"/></g></g></g></svg>